<svg width="15" height="15" viewBox="0 0 15 15" fill="none" xmlns="http://www.w3.org/2000/svg">
<path d="M6.48449 0.690996C6.78384 -0.230314 8.08725 -0.230314 8.3866 0.690997L9.45617 3.98279C9.59005 4.39482 9.974 4.67378 10.4072 4.67378H13.8684C14.8372 4.67378 15.2399 5.91339 14.4562 6.48279L11.656 8.51724C11.3056 8.77188 11.1589 9.22325 11.2928 9.63527L12.3623 12.9271C12.6617 13.8484 11.6072 14.6145 10.8235 14.0451L8.02333 12.0107C7.67284 11.756 7.19825 11.756 6.84776 12.0107L4.04759 14.0451C3.26388 14.6145 2.2094 13.8484 2.50875 12.9271L3.57832 9.63527C3.71219 9.22325 3.56554 8.77188 3.21505 8.51724L0.41488 6.48279C-0.368834 5.91339 0.0339417 4.67378 1.00267 4.67378H4.46386C4.89709 4.67378 5.28105 4.39482 5.41492 3.98279L6.48449 0.690996Z" fill="#EDD500"/>
</svg>
